# xmcd
# Track frame offsets:
# 150
# 17297
# 37835
# 52672
# 68095
# 81352
# 99600
# 115660
# 130752
# 145410
# 161762
# 186030
# 202457
# 215487
#
# Disc length: 3082 seconds
# Revision: 0
# Processed by: cddbd v1.5.1PL0 Copyright (c) Steve Scherf et al.
# Submitted via: VisiTrax 2.9.10.228 - For more info visit www.synapsa.com
#
DISCID=be0c080e
DTITLE=RAFFAELLA CARRA' - RAFFAELLA CARRA'
DYEAR=1997
DGENRE=POP
TTITLE0=TANTI AUGURI
TTITLE1=E SALUTALA PER ME
TTITLE2=NA NA HEY HEY KISS HIM GOODBYE
TTITLE3=RATAPLAN
TTITLE4=AMICOAMANTE
TTITLE5=ABBRACCIAMI
TTITLE6=DRIN DRIN
TTITLE7=PEDRO
TTITLE8=MI SPENDO TUTTO
TTITLE9=DOMANI
TTITLE10=MARIA MARI'
TTITLE11=CHICOS, CICHOS
TTITLE12=POVERO AMORE
TTITLE13=LATINO
EXTD=
EXTT0=
EXTT1=
EXTT2=
EXTT3=
EXTT4=
EXTT5=
EXTT6=
EXTT7=
EXTT8=
EXTT9=
EXTT10=
EXTT11=
EXTT12=
EXTT13=
PLAYORDER=
